<svg xmlns="http://www.w3.org/2000/svg" viewBox="0 0 75 55"><defs><style>.cls-1,.cls-2{fill:#414859;}.cls-1{fill-rule:evenodd;}</style></defs><title>mobile-feelgoodwithflowers-logo</title><g id="Content"><polygon class="cls-1" points="16.93 10.63 19.98 10.63 19.98 10.1 16.93 10.1 16.93 7.29 21.01 7.29 21.01 6.76 16.38 6.76 16.38 13.97 16.93 13.97 16.93 10.63"/><polygon class="cls-1" points="26.68 13.44 22.59 13.44 22.59 10.53 26.06 10.53 26.06 9.99 22.59 9.99 22.59 7.29 26.68 7.29 26.68 6.76 22.04 6.76 22.04 13.97 26.68 13.97 26.68 13.44"/><polygon class="cls-1" points="32.76 13.44 28.67 13.44 28.67 10.53 32.14 10.53 32.14 9.99 28.67 9.99 28.67 7.29 32.76 7.29 32.76 6.76 28.13 6.76 28.13 13.97 32.76 13.97 32.76 13.44"/><polygon class="cls-1" points="39 13.44 34.93 13.44 34.93 6.76 34.36 6.76 34.36 13.97 39 13.97 39 13.44"/><path class="cls-1" d="M10.51,24.38a3.67,3.67,0,0,0,2.83-1.31V20.4H11.06v.54h1.72v1.92a3.15,3.15,0,1,1-2.27-5.34,3.13,3.13,0,0,1,2.42,1.15l.41-.39a3.71,3.71,0,1,0-2.83,6.1Z"/><path class="cls-1" d="M18.29,24.38a3.71,3.71,0,1,0-3.72-3.71A3.71,3.71,0,0,0,18.29,24.38Zm0-6.86a3.16,3.16,0,1,1-3.16,3.15A3.17,3.17,0,0,1,18.29,17.52Z"/><path class="cls-1" d="M26.54,17a3.71,3.71,0,1,0,3.7,3.71A3.72,3.72,0,0,0,26.54,17Zm0,6.87a3.16,3.16,0,1,1,3.14-3.16A3.16,3.16,0,0,1,26.54,23.83Z"/><path class="cls-1" d="M31.43,24.28h2.22c2.13,0,3.52-1.05,3.52-3.83,0-2.28-1.18-3.38-3.52-3.38H31.43ZM32,17.61h1.67c1.67,0,3,.65,3,2.84s-1.07,3.28-3,3.28H32Z"/><polygon class="cls-1" points="26.8 33.62 24.85 27.37 24.24 27.37 22.29 33.62 20.33 27.37 19.73 27.37 21.98 34.58 22.59 34.58 24.55 28.34 26.5 34.58 27.1 34.58 29.36 27.37 28.75 27.37 26.8 33.62"/><rect class="cls-2" x="31.06" y="27.37" width="0.56" height="7.21"/><polygon class="cls-1" points="36.03 34.58 36.03 27.91 38.73 27.91 38.73 27.37 32.75 27.37 32.75 27.91 35.47 27.91 35.47 34.58 36.03 34.58"/><polygon class="cls-1" points="40.69 31.25 44.71 31.25 44.71 34.58 45.27 34.58 45.27 27.37 44.71 27.37 44.71 30.71 40.69 30.71 40.69 27.37 40.12 27.37 40.12 34.58 40.69 34.58 40.69 31.25"/><path class="cls-1" d="M13.35,48.33c-1.77.84-2.22-2.35-1.88-6.78a30.92,30.92,0,0,0,5.27-11c1.23-5.75-4.15-6.36-5.83,2.1a65.73,65.73,0,0,0-1.09,7.49l-.06.08c-.73,1.43-1,2.44-2.55,2.44-1.38,0-2-1-3-2.19A25,25,0,0,0,8.36,33.7a6.6,6.6,0,0,0,.39-3.37c-.28-1.48-2.86-1.79-4-.11C1.8,34.62-.45,48,.9,52.84c1.07,3.68,4.21,1.63,4.71-.05a19.42,19.42,0,0,0,0-9.25,4.19,4.19,0,0,0,1.63.39,3.35,3.35,0,0,0,2.47-1c0,3.77.53,6.51,1.9,7.2a1.49,1.49,0,0,0,2.19-.76C14.1,48.7,14.38,47.83,13.35,48.33ZM13.07,32c1.54-6.26,2.85-4.32,2-1a23.52,23.52,0,0,1-3.31,7.57A65.38,65.38,0,0,1,13.07,32Zm-7.26-.9c.64-.9,1.76-1.82,2-.42a5.19,5.19,0,0,1-.65,3.05c-1.26,2.47-2.58,4.69-3.81,5.64C3.93,35.86,4.8,32.63,5.81,31.12ZM4.1,52.4c-.4,2-1.38,1.09-1.55.39-.39-2.16-.19-6.87.48-11.44C4.52,42.3,4.66,49.28,4.1,52.4Z"/><path class="cls-1" d="M35.21,38.77c.48,2-.53,6.56-1.32,9.2-.5-1.94-1.43-5.33-2-6.06a1.12,1.12,0,0,0-1.91.48,53.07,53.07,0,0,1-1.85,5.8c-.28-2.27-1-6.53-1.26-7.6-.39-1.52-1.89-.68-1.81.4l0,0A6.31,6.31,0,0,1,23,43.29c.31-2.92-.62-5.75-3.08-5.75a3.67,3.67,0,0,0-3.7,2.83c-2.39,1.2-2.22,9.05,2.21,9.05,2.16,0,3.65-2.13,4.29-4.56a5.88,5.88,0,0,0,2.76-2c.29,2,.61,5,.94,6.5a1.54,1.54,0,0,0,2.49.67c.48-.67,1.69-6.5,2-6.59s.7,4,1.46,6.11A1.41,1.41,0,0,0,35,49.4c.26-.68,3.09-8.36,2.41-10.68C37.14,37.73,35,37.71,35.21,38.77ZM18.39,48.08c-1.4,0-1.93-2.5-1.71-4.43a3.69,3.69,0,0,0,3.2,1.6,9.11,9.11,0,0,0,1.29-.09C20.61,46.79,19.62,48.08,18.39,48.08Zm3.11-4.23a7.48,7.48,0,0,1-1.62.16c-2.78,0-2.81-5.18,0-5.18C21.59,38.83,22,41.41,21.5,43.85Z"/><path class="cls-1" d="M61.81,40.48a11.77,11.77,0,0,1-3,3.62c-.31-1.35-.76-2.64-1.12-3.81,1.23-1.66,1.48-4.66-.25-4.66a1.86,1.86,0,0,0-1.77,1.6c-.31,1.38.2,2.46.67,4l-.05.08c-1.32,2.07-3.68,6-4.82,5.49-1.35-.62,2-7.68,1.54-8.18-.42-.23-2.58-.79-2.58-2.47v-.17c-.31-.5-1.74-.36-1.52.06a21.21,21.21,0,0,1-2,5.15c-1.09,1.81-3.22,5.08-4.68,5.08-1.24,0-1.8-1.35-1.91-2.92,1.54-.22,3.48-1.43,3.48-3.42a2.3,2.3,0,0,0-1.94-2.49c-3.78,0-5.49,10.23.37,10.23,2.24,0,4.81-3.92,5.87-5.76l.11-.19.1-.18v0l.13-.24h0a28.82,28.82,0,0,0,1.49-3.16,4.12,4.12,0,0,0,1.37,1c-.59,1.46-2.5,6.34-1.54,7.88a2.23,2.23,0,0,0,3.31.67C54.32,46.72,55.49,45,56.8,43a12.22,12.22,0,0,1,.3,2.29c-.87.5-1.66.81-2.22,1.14-2.49,1.46-1.37,4.46.68,4.46a3.77,3.77,0,0,0,3.61-3.81,10.1,10.1,0,0,0-.08-1.37,12.16,12.16,0,0,0,3.76-4.24C63.38,40.48,62.85,38.63,61.81,40.48Zm-20.07-2c.42,0,.81.42.81,1.07a2.54,2.54,0,0,1-2.27,2.3C40.45,40.09,41,38.49,41.74,38.49Zm13.79,11.1c-.65,0-1.35-1.17.06-2.07a11.1,11.1,0,0,1,1.45-.7C56.85,48.56,56.17,49.59,55.53,49.59Zm1.68-10.93c-.05-.22-.11-.45-.14-.65-.08-.64,0-1.2.25-1.2S57.58,37.79,57.21,38.66Z"/><path class="cls-1" d="M41.34,9l.33,0c1.83,0,4.13-1.68,5.24-2.35-.47,1.08-2.83,2.38-3.34,4a1.47,1.47,0,0,0,1,2,3.2,3.2,0,0,1,3.06-2.62h.21c.23-.85.4-1.75.66-2.45.09.77.08,1.64.12,2.47a7.13,7.13,0,0,1,2.9,1A3.42,3.42,0,0,1,51,8.94a1.75,1.75,0,0,1,.13-.47c-.22-.4-.44-.76-.59-1.05.14.14.42.43.76.72a2.69,2.69,0,0,1,1.23-1,2.69,2.69,0,0,1,1.22-.31h.07A6.4,6.4,0,0,0,50.75,5.6h.45c.88,0,2.69-.1,2.89-.81a1.32,1.32,0,0,0-1-1.52,1.63,1.63,0,0,0-.31,0c-1,0-1.91.92-2.52,1.14.19-.28,2.45-3.15.7-3.64a1.2,1.2,0,0,0-.36-.05c-1.14,0-1.59,1.67-1.66,3C48.52,2.3,48.09.88,47,.23A1.42,1.42,0,0,0,46.48.1,1.16,1.16,0,0,0,46,.23c-1.8.79.89,3.09,1.62,3.75-1.19-.1-2.57-2-4.32-2h-.23a1.36,1.36,0,0,0-1.32,1.12c-.21,2.14,3.2,1.77,5,2.22-2,.4-6.41.08-6.58,2.23A1.49,1.49,0,0,0,41.34,9ZM48.9,4.21a1.16,1.16,0,0,1,1.24,1.08,1.26,1.26,0,0,1-2.49,0A1.17,1.17,0,0,1,48.9,4.21Z"/><path class="cls-1" d="M52.91,7.9,52.75,8l0,0-.12.06h0c-2.51,1.52,1.93,5.31,3.18,6.43C54,14.34,52,11.93,49.59,11.15h0l-.21-.06h0l-.2-.05h0l-.2,0h0a3.94,3.94,0,0,0-.77-.07,2.68,2.68,0,0,0-.4,0,2.36,2.36,0,0,0-2.32,2C45,16.65,51.05,16,54.15,16.8c-3.47.7-11.29.13-11.58,3.92a2.61,2.61,0,0,0,2.14,2.68,5.49,5.49,0,0,0,.58,0c3.23,0,7.27-2.95,9.22-4.13-.82,1.9-5,4.19-5.88,7-.79,2.39.95,3.75,2.89,3.75a4.12,4.12,0,0,0,2.81-1.08c1.87-1.74,2.14-5.59,3-8,.42,3.37-.31,7.83,1.78,9.45a3.08,3.08,0,0,0,1.76.6h.27a2.51,2.51,0,0,0,2.43-2c0-.09,0-.19,0-.28s0-.14,0-.2,0-.05,0-.07c.3-3-1.83-6.1-2.76-7.82.63.63,2.79,2.85,4.59,2.85a2,2,0,0,0,1.83-1.25,3.08,3.08,0,0,0,.18-1.25c-.75-2.52-3.64-2.89-6.24-3.56h.79c1.54,0,4.73-.18,5.09-1.43a2.34,2.34,0,0,0-1.78-2.67,3.51,3.51,0,0,0-.55-.05c-1.81,0-3.36,1.62-4.44,2,.33-.49,4.31-5.54,1.25-6.41a2.24,2.24,0,0,0-.65-.1c-2,0-2.79,3-2.92,5.26-.72-2.42-1.47-4.92-3.38-6a2.36,2.36,0,0,0-.93-.23A1.78,1.78,0,0,0,52.91,7.9Zm4.45,7.3a2,2,0,0,1,.59-.08,2.14,2.14,0,0,1,.45.05,1.78,1.78,0,0,1,1.66,1.63,1.49,1.49,0,0,1-.5,1.08,1.77,1.77,0,0,1-1.45.64,2,2,0,0,1-2-1.36A1.51,1.51,0,0,1,57.36,15.2Z"/><path class="cls-1" d="M74.5,32.68c-.46-1.56-2.26-1.79-3.86-2.2h.49c1,0,2.93-.11,3.15-.89a1.44,1.44,0,0,0-1.11-1.65,1.84,1.84,0,0,0-.33,0c-1.13,0-2.09,1-2.76,1.24.21-.3,2.67-3.43.78-4a1.56,1.56,0,0,0-.41-.06c-1.24,0-1.72,1.83-1.8,3.26-.45-1.5-.92-3.05-2.1-3.75a1.45,1.45,0,0,0-.57-.14,1.05,1.05,0,0,0-.53.14c-2,.86,1,3.36,1.77,4.08-.81-.07-1.69-.89-2.69-1.52a6.4,6.4,0,0,1-.11,1.9,3,3,0,0,1-.26.75,16.75,16.75,0,0,1,2.06.31c-.63.12-1.49.18-2.39.26A3.49,3.49,0,0,1,61,31.8a3.87,3.87,0,0,1-1.4-.27,1.47,1.47,0,0,0-.53,1,1.61,1.61,0,0,0,1.32,1.66l.36,0c2,0,4.5-1.83,5.71-2.56-.51,1.18-3.07,2.6-3.64,4.3a1.7,1.7,0,0,0,1.79,2.33,2.59,2.59,0,0,0,1.74-.67c1.16-1.08,1.32-3.46,1.88-5,.26,2.09-.19,4.85,1.1,5.85a1.86,1.86,0,0,0,1.14.38,1.58,1.58,0,0,0,1.62-1.26c.41-2-1-4-1.66-5.19.39.4,1.73,1.77,2.84,1.77a1.25,1.25,0,0,0,1.14-.77A1.86,1.86,0,0,0,74.5,32.68Zm-5.83-1.47a1.19,1.19,0,0,1-1.23-.84.94.94,0,0,1,.77-1.22,1.5,1.5,0,0,1,.37,0,1.12,1.12,0,0,1,1.17.94A1,1,0,0,1,68.67,31.21Z"/></g></svg>