<svg xmlns="http://www.w3.org/2000/svg" viewBox="0 0 30 30"><defs><style>.cls-1{fill:#414859;}</style></defs><title>instagram</title><g id="Content"><path class="cls-1" d="M15,11.15A3.85,3.85,0,1,0,18.85,15,3.85,3.85,0,0,0,15,11.15Zm0,6.35A2.5,2.5,0,1,1,17.5,15,2.5,2.5,0,0,1,15,17.5Z"/><path class="cls-1" d="M19,10.1a.9.9,0,1,0,.9.9A.9.9,0,0,0,19,10.1Z"/><path class="cls-1" d="M15,0A15,15,0,1,0,30,15,15,15,0,0,0,15,0Zm7.45,18.09a5.45,5.45,0,0,1-.34,1.82,3.88,3.88,0,0,1-2.2,2.2,5.45,5.45,0,0,1-1.82.34c-.8,0-1.05.05-3.09.05s-2.29,0-3.09-.05a5.45,5.45,0,0,1-1.82-.34,3.88,3.88,0,0,1-2.2-2.2,5.45,5.45,0,0,1-.34-1.82c0-.8,0-1.05,0-3.09s0-2.29,0-3.09a5.45,5.45,0,0,1,.34-1.82,3.88,3.88,0,0,1,2.2-2.2,5.45,5.45,0,0,1,1.82-.34c.8,0,1.05,0,3.09,0s2.29,0,3.09,0a5.45,5.45,0,0,1,1.82.34,3.88,3.88,0,0,1,2.2,2.2,5.45,5.45,0,0,1,.34,1.82c0,.8.05,1.05.05,3.09S22.49,17.29,22.45,18.09Z"/></g></svg>