<svg xmlns="http://www.w3.org/2000/svg" xmlns:se="http://svg-edit.googlecode.com" xmlns:xlink="http://www.w3.org/1999/xlink" xmlns:dc="http://purl.org/dc/elements/1.1/" xmlns:cc="http://creativecommons.org/ns#" xmlns:rdf="http://www.w3.org/1999/02/22-rdf-syntax-ns#" xmlns:inkscape="http://www.inkscape.org/namespaces/inkscape" width="628" height="472" style=""><rect id="backgroundrect" width="100%" height="100%" x="0" y="0" fill="#FFFFFF" stroke="none"/><g style="" class="currentLayer"><title>Layer 1</title><g class="" id="g10"><g id="svg_2" stroke-width="0"><path id="path14" style="fill:#3a3c4a;fill-opacity:1;fill-rule:nonzero;stroke:none" d="m147.80238690088993,58.10134046378482 v24.298666421278345 h26.441333066306562 V87.04534017148399 h-26.441333066306562 v28.942666374379332 h-4.825333284603068 v-62.5319993684994 h40.1986662607068 v4.64533328642086 h-35.37333297610373 " stroke-width="0"/><path id="path16" style="fill:#3a3c4a;fill-opacity:1;fill-rule:nonzero;stroke:none" d="m196.85438640552167,58.10134046378482 v23.40399976364677 h30.10266636266468 v4.64533328642086 H196.85438640552167 v25.19066641227018 h35.459999641895166 v4.646666619740728 h-40.19999959402667 v-62.5319993684994 h40.19999959402667 v4.64533328642086 H196.85438640552167 " stroke-width="0"/><path id="path18" style="fill:#3a3c4a;fill-opacity:1;fill-rule:nonzero;stroke:none" d="m249.57305253979098,58.10134046378482 v23.40399976364677 h30.10266636266468 v4.64533328642086 h-30.10266636266468 v25.19066641227018 h35.459999641895166 v4.646666619740728 h-40.19999959402667 v-62.5319993684994 h40.19999959402667 v4.64533328642086 h-35.459999641895166 " stroke-width="0"/><path id="path20" style="fill:#3a3c4a;fill-opacity:1;fill-rule:nonzero;stroke:none" d="m339.0903849691033,111.3413399261226 v4.646666619740728 h-40.19333292742733 v-62.5319993684994 h4.911999950394503 v57.885332748758664 h35.281332977032825 " stroke-width="0"/><path id="path22" style="fill:#3a3c4a;fill-opacity:1;fill-rule:nonzero;stroke:none" d="m116.61305388253265,171.7520059827117 v23.13333309971352 c-5.895999940457244,6.969333262951158 -14.647999852072205,11.345333218758638 -24.47066641954134,11.345333218758638 c-17.87066648619368,0 -32.25333300761211,-14.379999854778694 -32.25333300761211,-32.15599967526173 c0,-17.686666488051866 14.38266652141843,-32.159999675221336 32.25333300761211,-32.159999675221336 c9.822666567469136,0 18.574666479084097,4.4666666215585185 24.47066641954134,11.434666551189808 l-3.4799999648560402,3.393333299064606 c-5.005333282785277,-6.071999938679849 -12.59866653943476,-10.005333232291083 -20.990666454685304,-10.005333232291083 c-15.634666508774684,0 -27.427999723009044,12.685333205226193 -27.427999723009044,27.337333057258004 c0,15.094666514228056 12.23999987639021,27.3333330572984 27.427999723009044,27.3333330572984 c7.679999922440916,0 14.647999852072205,-3.2173333008420015 19.653333134857483,-8.394666581890279 v-16.61599983219769 h-14.921333182645188 v-4.64533328642086 h19.738666467329047 " stroke-width="0"/><path id="path24" style="fill:#3a3c4a;fill-opacity:1;fill-rule:nonzero;stroke:none" d="m186.84371983995112,174.07467262592206 c0,-15.007999848436624 -12.325333208861775,-27.337333057258004 -27.241333058227493,-27.337333057258004 c-15.633333175454815,0 -27.42666638968917,12.685333205226193 -27.42666638968917,27.337333057258004 c0,15.094666514228056 12.238666543070343,27.3333330572984 27.42666638968917,27.3333330572984 c15.007999848436624,0 27.241333058227493,-12.238666543070343 27.241333058227493,-27.3333330572984 zm-59.49333273251973,0 c0,-17.686666488051866 14.38266652141843,-32.159999675221336 32.25199967429224,-32.159999675221336 c17.68399982141213,0 32.06666634283056,14.47333318716947 32.06666634283056,32.159999675221336 c0,17.775999820483037 -14.38266652141843,32.15599967526173 -32.06666634283056,32.15599967526173 c-17.869333152873814,0 -32.25199967429224,-14.379999854778694 -32.25199967429224,-32.15599967526173 " stroke-width="0"/><path id="path26" style="fill:#3a3c4a;fill-opacity:1;fill-rule:nonzero;stroke:none" d="m258.325052451406,174.07467262592206 c0,-15.007999848436624 -12.326666542181645,-27.337333057258004 -27.241333058227493,-27.337333057258004 c-15.633333175454815,0 -27.42666638968917,12.685333205226193 -27.42666638968917,27.337333057258004 c0,15.094666514228056 12.238666543070343,27.3333330572984 27.42666638968917,27.3333330572984 c15.007999848436624,0 27.241333058227493,-12.238666543070343 27.241333058227493,-27.3333330572984 zm-59.49333273251973,0 c0,-17.686666488051866 14.38266652141843,-32.159999675221336 32.25199967429224,-32.159999675221336 c17.68399982141213,0 32.06666634283056,14.47333318716947 32.06666634283056,32.159999675221336 c0,17.775999820483037 -14.38266652141843,32.15599967526173 -32.06666634283056,32.15599967526173 c-17.869333152873814,0 -32.25199967429224,-14.379999854778694 -32.25199967429224,-32.15599967526173 " stroke-width="0"/><path id="path28" style="fill:#3a3c4a;fill-opacity:1;fill-rule:nonzero;stroke:none" d="m318.4650518440618,172.10800597911646 c0,-18.93866647540812 -11.254666553007599,-24.565333085251986 -25.722666406897595,-24.565333085251986 h-14.475999853809205 v53.059999464155595 h14.475999853809205 c16.431999834055876,0 25.722666406897595,-8.485333247641318 25.722666406897595,-28.494666378903613 zm4.825333284603068,0 c0,24.11866642309613 -12.059999878208002,33.23066633107551 -30.547999691500667,33.23066633107551 h-19.294666471812935 v-62.5319993684994 h19.294666471812935 c20.278666461875677,0 30.547999691500667,9.561333236774965 30.547999691500667,29.30133303742388 " stroke-width="0"/><path id="path30" style="fill:#3a3c4a;fill-opacity:1;fill-rule:nonzero;stroke:none" d="m255.53438581292176,232.15467203938152 l-19.559999802466706,62.52799936853979 h-5.27199994675892 l-16.883999829491202,-54.12799945337004 l-16.971999828602502,54.12799945337004 h-5.270666613439053 l-19.559999802466706,-62.52799936853979 h5.270666613439053 l16.970666495282636,54.135999453289244 l16.87866649621173,-54.135999453289244 h5.270666613439053 l16.971999828602502,54.135999453289244 l16.88533316281107,-54.135999453289244 h5.270666613439053 " stroke-width="0"/><path id="path32" style="fill:#3a3c4a;fill-opacity:1;fill-rule:nonzero;stroke:none" d="m270.2903856639033,232.15467203938152 h4.825333284603068 v62.52799936853979 h-4.825333284603068 v-62.52799936853979 " stroke-width="0"/><path id="path34" style="fill:#3a3c4a;fill-opacity:1;fill-rule:nonzero;stroke:none" d="m336.7597183259735,236.80000532580237 h-23.401333097007033 v57.88266608211893 h-4.8239999512832 v-57.88266608211893 h-23.587999761788584 v-4.64533328642086 h51.81333281007882 v4.64533328642086 " stroke-width="0"/><path id="path36" style="fill:#3a3c4a;fill-opacity:1;fill-rule:nonzero;stroke:none" d="m393.4983844196455,232.15467203938152 v62.52799936853979 h-4.9186666169938436 v-28.93866637441973 h-34.83466631487697 v28.93866637441973 h-4.911999950394503 v-62.52799936853979 h4.911999950394503 v28.945333041019072 h34.83466631487697 v-28.945333041019072 h4.9186666169938436 " stroke-width="0"/><path id="path38" style="fill:#3a3c4a;fill-opacity:1;fill-rule:nonzero;stroke:none" d="m31.177054745337045,450.4413365016062 c-3.4013332989838156,17.741333154166462 -11.907999879743025,9.477333237623268 -13.369333198318587,3.4013332989838156 c-3.3999999656639472,-18.71333314435039 -1.695999982872369,-59.54533273199459 4.135999958231202,-99.15999899859912 c12.879999869926952,8.262666583223325 14.094666524326895,68.78266597204158 9.233333240087386,95.7586656996153 zm14.827999850254413,-184.4706648037271 c5.587999943567687,-7.774666588151559 15.310666512046708,-15.794666507158869 17.014666494838288,-3.6453332965196985 c0.9706666568640603,6.075999938639454 0,15.309333178726838 -5.594666610167028,26.491999732461554 c-10.937333222878964,21.386666450686164 -22.35733310755022,40.587999590108325 -33.0506663328933,48.850666173331646 c5.342666612711936,-30.621333024093417 12.878666536607085,-58.57333274181067 21.630666448222044,-71.6973326092735 zm62.93066603113999,7.779999921431032 c13.361333198399377,-54.19999945264292 24.787999749669975,-37.42933295534052 17.741333154166462,-8.995999909150843 c-7.291999926359265,29.413333036292812 -18.47466648009398,50.31066615858734 -28.678666377045428,65.62133267063405 c2.6679999730562978,-18.46799981349464 6.313333269575996,-38.157332947988564 10.937333222878964,-56.62533276148321 zm2.430666642119755,141.44533190489966 c-15.317333178646049,7.291999926359265 -19.19999980610229,-20.414666460502236 -16.28799983551011,-58.80933273942734 c16.043999837974226,-22.12133310993355 37.43066628866039,-57.11999942315431 45.69333287188371,-95.52266570199862 c10.693333225343082,-49.8173328302361 -35.97066630340469,-55.162666109587775 -50.554666156123226,18.230666482558096 c-4.5733332871479755,22.794666436466997 -7.7693332548720875,44.903999546521725 -9.398666571751043,64.91599934442377 c-0.1733333315828683,0.25733333073456544 -0.3933333293611233,0.40799999587967434 -0.5466666611459671,0.7039999928904181 c-6.321333269495205,12.398666541454526 -8.751999911614961,21.14933311974962 -22.113333110014338,21.14933311974962 c-11.909333213062892,0 -17.502666489910055,-8.507999914079077 -26.247999734925674,-18.955999808566403 c15.791999840519134,-15.798666507118474 31.835999678493362,-47.39733285467529 36.207999634341235,-58.57999940841001 c3.4013332989838156,-9.714666568559812 5.350666612631145,-20.651999791438772 3.4013332989838156,-29.15999970551785 c-2.430666642119755,-12.878666536607085 -24.787999749669975,-15.55466650958259 -34.99333297994129,-0.9719999901839286 c-25.275999744741743,38.157332947988564 -44.72133288169979,153.84266511303431 -33.057332999492644,196.13466468593424 c9.241333240006595,31.835999678493362 36.45999963179633,14.094666524326895 40.831999587644205,-0.4879999950717669 c6.565333267031089,-23.573333095270034 6.077333271959322,-56.386666097226794 -0.24533333085575174,-80.20533252335258 c4.379999955767085,1.9493333136473299 9.241333240006595,3.4026666323036836 14.102666524246105,3.4026666323036836 c9.241333240006595,0 16.06933317105172,-3.5653332973276055 21.4479997834001,-8.939999909716379 c-0.4746666618730849,32.705333003047436 4.5733332871479755,56.41066609698442 16.44266650061482,62.414666036350994 c5.350666612631145,2.6679999730562978 13.857333193390355,3.882666627456241 18.955999808566403,-6.566666600350957 c2.9199999705113897,-5.587999943567687 5.350666612631145,-13.123999867462837 -3.6386666299203574,-8.751999911614961 " stroke-width="0"/><path id="path40" style="fill:#3a3c4a;fill-opacity:1;fill-rule:nonzero;stroke:none" d="m182.07838655474205,376.31333725021295 c-4.371999955847875,0.9706666568640603 -8.989333242551503,1.459999985255695 -14.094666524326895,1.459999985255695 c-24.062666423661668,0 -24.29999975459821,-44.9679995458754 0,-44.9679995458754 c14.827999850254413,0 18.22933314923823,22.365333107469432 14.094666524326895,43.50799956061971 zm-26.97466639425385,36.69733296273287 c-12.153333210598777,0 -16.770666497302404,-21.631999781541914 -14.827999850254413,-38.401332945524445 c5.350666612631145,8.023999918966915 14.582666519398664,13.855999860070487 27.707999720181366,13.855999860070487 c3.89066662737545,0 7.535999923895149,-0.24266666421601507 11.181333220414848,-0.7319999926076507 c-4.86133328423951,14.101333190926239 -13.36799986499872,25.277333078061613 -24.0613330903418,25.277333078061613 zm145.80933186082834,-80.686665851825 c4.135999958231202,17.007999828238944 -4.615999953383758,56.86799942569922 -11.419999884671258,79.71466586164108 c-4.371999955847875,-16.769333163982534 -12.39733320813466,-46.17466620035614 -17.013333161518418,-52.49599946985135 c-4.127999958311992,-5.8319999411035734 -13.60666652925513,-3.6453332965196985 -16.52533316644665,4.129333291631861 c-1.6973333161922373,4.859999950919643 -8.989333242551503,34.754666315684894 -16.043999837974226,50.30933282526747 c-2.423999975520414,-19.68399980121445 -8.499999914159869,-56.62533276148321 -10.930666556279624,-65.86399933485006 c-3.417333298822234,-13.21199986657414 -16.44266650061482,-5.92266660685461 -15.665333175131652,3.4466666318593346 c-0.11466666550866664,0.17066666494313137 -0.2533333307749608,0.25866666405443395 -0.363999996324023,0.442666662196248 c-5.5959999434868966,9.239999906686727 -11.427999884590466,15.310666512046708 -18.230666482558096,19.44533313695804 c2.675999972975508,-25.277333078061613 -5.349333279311277,-49.82133283019571 -26.73599972999744,-49.82133283019571 c-17.741333154166462,0 -28.434666379509544,11.174666553815507 -32.07999967602924,24.543999752134095 c-20.661333124677853,10.449333227807198 -19.201333139422157,78.50799920716034 19.19999980610229,78.50799920716034 c18.711999811030523,0 31.59866634755682,-18.47599981341385 37.1866662911245,-39.617332933244256 c9.806666567630717,-3.3306666330308 17.567999822583594,-8.967999909433612 23.971999757910627,-16.926666495726984 c2.4533333085575144,17.35466649140468 5.274666613398657,43.59199955977141 8.093333251600063,56.29866609811549 c2.430666642119755,10.449333227807198 17.502666489910055,11.663999882207142 21.630666448222044,5.8319999411035734 c4.135999958231202,-5.8319999411035734 14.58399985271853,-56.386666097226794 17.503999823229922,-57.113332756554975 c2.186666644583872,-0.4879999950717669 6.075999938639454,34.51199965146886 12.634666539071201,52.977332798323765 c4.1346666249113335,11.427999884590466 18.955999808566403,8.995999909150843 23.09066643347774,-1.695999982872369 c2.186666644583872,-5.8319999411035734 26.73733306331731,-72.43066593520102 20.897333122294526,-92.60133239816737 c-2.4293333087998867,-8.507999914079077 -21.38533311736629,-8.75333324493483 -19.19999980610229,0.4879999950717669 " stroke-width="0"/><path id="path42" style="fill:#3a3c4a;fill-opacity:1;fill-rule:nonzero;stroke:none" d="m492.6397167517665,315.3093378662826 c2.185333311264004,0 2.185333311264004,8.507999914079077 -0.9786666567832695,16.043999837974226 c-0.4813333284724255,-1.9479999803274617 -0.9706666568640603,-3.89066662737545 -1.2159999877198115,-5.594666610167028 c-0.7253333260083088,-5.5866666102478195 -0.4813333284724255,-10.449333227807198 2.1946666445030814,-10.449333227807198 zm-15.55466650958259,110.82399888080626 c-5.594666610167028,0 -11.671999882126352,-10.203999896951446 0.4813333284724255,-17.98399981838248 c2.9199999705113897,-1.9426666470479885 7.291999926359265,-3.646666629839567 12.64266653899041,-6.077333271959322 c-1.7053333161114463,15.073333181110165 -7.537333257215018,24.0613330903418 -13.123999867462837,24.0613330903418 zm-119.56133212590268,-96.23866569476786 c3.6453332965196985,0 7.046666595503514,3.6453332965196985 7.046666595503514,9.233333240087386 c0,9.721333235159152 -8.75066657829509,18.227999815918363 -19.68933313449392,19.926666465430465 c1.4586666519358267,-15.310666512046708 6.321333269495205,-29.15999970551785 12.64266653899041,-29.15999970551785 zm173.99866490948213,17.25066649245496 c-8.018666585687443,14.339999855182647 -17.014666494838288,24.306666421197555 -26.00399973738979,31.354666350020935 c-2.6746666396556384,-11.663999882207142 -6.565333267031089,-22.846666435941856 -9.72266656847902,-33.0506663328933 c10.694666558662949,-14.339999855182647 12.879999869926952,-40.350666259171774 -2.186666644583872,-40.350666259171774 c-7.046666595503514,0 -13.36799986499872,5.105333281775393 -15.309333178726838,13.857333193390355 c-2.71066663929208,11.925333212901311 1.6999999828319736,21.31466645141328 5.8373332743830435,34.33466631992639 c-0.15866666506431754,0.2293333310173334 -0.3199999967683718,0.4173333291187513 -0.4799999951525578,0.665333326614239 c-11.4266665512706,17.985333151702346 -31.841333011772832,52.25066613899559 -41.80266624450826,47.634666185611835 c-11.670666548806482,-5.350666612631145 17.251999825774828,-66.59866599409744 13.361333198399377,-70.97066594994533 c-3.6453332965196985,-1.9413333137281206 -22.35733310755022,-6.802666597967631 -22.35733310755022,-21.386666450686164 v-1.459999985255695 c-2.6746666396556384,-4.371999955847875 -15.065333181190956,-3.155999968128064 -13.123999867462837,0.4893333283916348 c-1.1253333219687731,10.793333224333198 -13.050666534870084,36.32399963316977 -17.717333154408834,44.705332881861366 c-9.46266657110472,15.661333175172048 -27.954666384356987,44.00533288893055 -40.610666256546075,44.00533288893055 c-10.693333225343082,0 -15.55466650958259,-11.671999882126352 -16.52533316644665,-25.277333078061613 c13.36799986499872,-1.9493333136473299 30.13866636230112,-12.39733320813466 30.13866636230112,-29.64933303390949 c0,-12.39733320813466 -8.262666583223325,-21.631999781541914 -16.770666497302404,-21.631999781541914 c-32.81333300195676,0 -47.634666185611835,88.71333243743166 3.157333301447932,88.71333243743166 c19.454666470197118,0 41.70933291211749,-34.01066632319842 50.92799948568632,-49.98266616189976 c0.26666666397364364,-0.4586666620346665 0.5959999939810928,-1.0453333227766801 0.9106666574699906,-1.603999983801462 c0.29466666369087613,-0.5213333280684719 0.6053333272201694,-1.0639999892548353 0.863999991274604,-1.5306666512087106 c0.03466666631657361,-0.06133333271393802 0.07333333259275181,-0.1359999986265579 0.10799999890932538,-0.1986666646603642 c0.4239999957180923,-0.7666666589242236 0.8266666583182938,-1.5026666514914777 1.1453333217667963,-2.101333312112306 c0.006666666599341082,-0.011999999878813958 0.006666666599341082,-0.023999999757627927 0.013333333198682166,-0.03466666631657361 c3.8093332948634893,-7.058666595382328 9.09466657482109,-17.585333155741882 12.866666536728271,-27.42933305632891 c3.8893332940555823,4.129333291631861 9.721333235159152,7.530666590615676 11.907999879743025,8.263999916543193 c-5.105333281775393,12.634666539071201 -21.630666448222044,54.926666111971095 -13.369333198318587,68.29466597696982 c7.7813332547508995,12.39066654153532 20.17199979628622,11.419999884671258 28.679999710365294,5.8319999411035734 c11.138666554179066,-7.426666591665955 21.238666452180787,-22.235999775442217 32.65733300353218,-39.7626662651099 c1.6053333171213302,7.065333261981669 2.334666643089244,13.687999861767091 2.5719999740257857,19.83599979967943 c-7.535999923895149,4.371999955847875 -14.33866652186278,7.0479999288233826 -19.19999980610229,9.959999899415564 c-21.631999781541914,12.64266653899041 -11.909333213062892,38.645332943060325 5.8319999411035734,38.645332943060325 c20.659999791357983,0 31.353333016701068,-19.19999980610229 31.353333016701068,-33.0506663328933 c0,-4.1346666249113335 -0.24399999753588358,-8.025333252286783 -0.7266666593281782,-11.909333213062892 c10.694666558662949,-7.290666593039397 22.35866644087009,-18.473333146774113 32.569333004420876,-36.70266629601234 c4.6173332867036265,-8.507999914079077 0,-24.543999752134095 -8.995999909150843,-8.507999914079077 " stroke-width="0"/><path id="path44" style="fill:#fbc308;fill-opacity:1;fill-rule:evenodd;stroke:none" d="m417.7570508413279,33.749340709711646 c5.651999942921361,0 10.238666563268021,3.957333293368861 10.238666563268021,8.851999910605077 c0,4.885333283997138 -4.586666620346658,8.841333244046131 -10.238666563268021,8.841333244046131 c-5.65333327624123,0 -10.238666563268021,-3.955999960048993 -10.238666563268021,-8.841333244046131 c0,-4.894666617236216 4.58533328702679,-8.851999910605077 10.238666563268021,-8.851999910605077 zm-43.833332890667556,53.02799946447876 c-2.987999969824669,9.022666575548207 1.7799999820240666,14.843999850092832 8.511999914038682,16.766666497342797 c1.5933333172425166,-11.577333216415706 11.535999883499793,-20.182666462845166 25.118666412997293,-21.49733311623522 c0.5759999941830694,-0.05466666611459693 1.1426666551270601,-0.05066666615499223 1.7146666493505238,-0.08266666583182955 c1.9546666469268026,-6.991999929388917 3.317333299832118,-14.414666521095267 5.4266666118636335,-20.149333129848458 c0.7893333253619822,6.335999936013756 0.7266666593281782,13.474666530588177 0.9853333233826095,20.26133312871739 c8.694666578860627,0.8559999913553947 16.59333316575993,4.2759999568173646 23.881333092159593,8.554666580274464 c-3.5506666308090553,-6.1919999374679895 -5.3733332790689055,-12.282666542625993 -4.459999954959178,-18.022666484658654 c0.1906666647411547,-1.1893333213224473 0.5346666612671535,-2.497333308113166 1.08266665573299,-3.8493332944595355 c-1.8119999817009034,-3.2933333000744898 -3.574666630566683,-6.245333270262718 -4.851999951000433,-8.613333246348665 c1.1506666550462692,1.174666654803897 3.4413332985798615,3.499999964654063 6.283999936538896,5.885333273898299 c1.8773333143744462,-2.9839999698650637 4.959999949909759,-5.96666660641026 10.105333231281199,-8.249333250024643 c3.4013332989838156,-1.719999982629998 6.681333265859623,-2.5573333075072355 10.018666565489765,-2.5573333075072355 c0.1893333314212868,0 0.3573333297246819,0.03466666631657361 0.5413333278664945,0.03999999959604653 c-5.754666608551213,-6.0439999389626164 -15.907999839347669,-7.6719999225217075 -25.28533307798082,-10.091999898082516 h3.7066666292336365 c7.193333260689018,-0.05333333279472871 22.09866644349579,-0.8319999915977659 23.750666426812504,-6.654666599462258 c1.594666650562385,-5.5839999436080845 -3.4493332984990714,-11.571999883136234 -8.313333249378317,-12.478666540646621 c-0.8626666579547355,-0.16133333170405414 -1.7119999827107883,-0.2359999976166742 -2.551999974227763,-0.2359999976166742 c-8.46133324788369,0.0013333333198682147 -15.706666508047567,7.538666590534885 -20.750666457109023,9.386666571872231 c1.5559999842862067,-2.293333310173329 20.135999796649777,-25.90533307171954 5.822666607864493,-29.957333030799045 c-1.0706666558541762,-0.3039999969299536 -2.079999978994415,-0.4466666621558529 -3.030666636060452,-0.4466666621558529 c-9.346666572276183,0 -12.997333202075357,13.802666527275758 -13.611999862534603,24.581333085090407 c-3.385333299145397,-11.310666552442065 -6.883999930479592,-23.005333101006173 -15.805333173717816,-28.29466638092338 c-1.4226666522993852,-0.5826666607824095 -2.7853333052047002,-1.0719999891740444 -4.321333289692883,-1.0719999891740444 c-1.1919999879621839,0 -2.489333308193957,0.29466666369087613 -4.001333292924512,1.0719999891740444 c-14.859999849931253,6.467999934680709 7.261333260002297,25.3826664103312 13.318666532163595,30.78933302239681 c-9.841333233947292,-0.8226666583586891 -21.189333119345665,-16.731999831026226 -35.582666307323045,-16.731999831026226 c-0.614666660459247,0 -1.237333320837703,0.029333333037100773 -1.8613333145360276,0.08933333243117059 c-5.42133327858416,0.5279999946678137 -10.278666562864066,3.7813332951462564 -10.818666557410694,9.15599990753503 c-1.7666666488253844,17.597333155620696 26.266666401403832,14.54799985308209 40.76933292161039,18.302666481830983 c-16.213333169597487,3.2413333005996297 -52.73199946746802,0.5866666607420145 -54.08133278717465,18.305333148470716 c-0.4479999954757204,5.8559999408611985 4.31599995641341,11.801333214153567 9.985333232493058,12.478666540646621 c0.8839999910726266,0.10666666558945725 1.7839999819836714,0.15599999842458134 2.6999999727331367,0.15599999842458134 c15.097333180867794,0 33.9359996572858,-13.773333194238656 43.06133289846385,-19.294666471812935 c-3.8319999613012485,8.873333243722968 -23.190666432467857,19.570666469025653 -27.457333056046142,32.45466633891221 " stroke-width="0"/><path id="path46" style="fill:#f6c5c7;fill-opacity:1;fill-rule:evenodd;stroke:none" d="m493.4650500767649,151.43733952119953 c-7.32533325935597,0 -14.969333182160444,-4.035999959241085 -16.397333167739305,-11.203999886852607 c-1.4013333191814934,-7.04933326214325 0.17866666486234095,-13.146666533900595 10.251999896466701,-16.10933317064777 c1.5866666506431775,-0.4679999952737438 3.23333330068042,-0.6933333263314724 4.8746666174381925,-0.6933333263314724 c1.2546666539959899,0 2.493333308153561,0.17866666486234095 3.710666629193241,0.4359999955969065 c7.723999921996567,1.0853333223727268 13.623999862413417,6.630666599704631 13.623999862413417,13.355999865119905 c0,3.4479999651792026 -1.595999983882253,6.559999933751616 -4.145333291470279,8.957333242874666 c-2.715999972571553,3.547999964169319 -7.2266665936857235,5.25733328024037 -11.91866654630197,5.25733328024037 zm77.34266588559552,19.55066646922763 c-6.118666604875237,-20.762666456987837 -29.917333031202997,-23.781333093169476 -51.25866614901364,-29.289333037545067 h6.510666600916491 c12.66666653874804,-0.08799999911130219 38.9066662737545,-1.4693333184947723 41.81999957766655,-11.717333215001869 c2.7946666384437777,-9.827999900748608 -6.073333271999717,-20.370666460946584 -14.6439998521126,-21.971999778108305 c-1.5173333180100284,-0.28266666381206224 -3.010666636262428,-0.4133333291591469 -4.485333288036674,-0.4133333291591469 c-14.891999849608089,0.0013333333198682147 -27.641333054187957,13.273333199288075 -36.5279996311096,16.527999833086387 c2.734666639049708,-4.038666625880822 35.443999642056745,-45.5973328728532 10.250666563146833,-52.73599946742762 c-1.887999980933392,-0.5333333279472848 -3.6639999629978544,-0.783999992082511 -5.3386666127523315,-0.783999992082511 c-16.457333167133374,0 -22.88133310225843,24.293333087998867 -23.95599975807221,43.26666622972356 c-5.970666606369865,-19.909333132272177 -12.135999877440488,-40.49466625771754 -27.829333052289375,-49.80399949703742 c-2.5026666413926373,-1.0266666562985252 -4.903999950475293,-1.88933331425326 -7.607999923168033,-1.88933331425326 c-2.0986666454725698,0 -4.381333289086953,0.5199999947486037 -7.035999928944569,1.88933331425326 c-26.16666640241371,11.385333218354685 12.773333204337495,44.67199954886466 23.437333096643474,54.195999452683324 c-17.318666491768237,-1.4479999853768812 -37.294666290033824,-29.45333303588886 -62.633332700809376,-29.45333303588886 c-1.08266665573299,0 -2.181333311304399,0.05199999947486045 -3.2839999668354123,0.15866666506431754 c-9.542666570296811,0.923999990668674 -18.089333150652067,6.651999932822522 -19.037333141078367,16.110666503967636 c-3.1173333018518856,30.987999687057176 46.242666199669415,25.619999741267744 71.76933260854638,32.22399967457501 c-28.55066637833808,5.7133332756353 -92.83333239582444,1.031999989577998 -95.20533237186999,32.225333007894875 c-0.7879999920421155,10.313333229180639 7.591999923329613,20.770666456907048 17.575999822502805,21.97066644478844 c1.5573333176060746,0.18666666478155003 3.1399999682896453,0.2746666638928532 4.750666618690449,0.2746666638928532 c26.578666398252988,0 59.743999396654964,-24.247999755123352 75.80533256778746,-33.959999657043426 c-6.747999931853034,15.61599984229653 -40.823999587725,34.44799965211519 -48.33333284522278,57.11866608983444 c-6.505333267637019,19.642666468298536 7.7786665881111645,30.85733302171009 23.795999759688026,30.85733302171009 c8.063999918562962,0 16.566666499362565,-2.8426666379590335 23.07733310027906,-8.882666576962047 c15.389333177918934,-14.282666522428315 17.546666489465704,-45.9413328693792 24.895999748579303,-65.91866600096466 c3.4466666318593346,27.685333053743605 -2.5573333075072355,64.32933268368176 14.65066651871194,77.63466588264666 c4.247999957100132,3.2826666335155443 9.682666568882976,4.965333283189231 15.075999847749902,4.965333283189231 c9.667999902364425,0 19.20533313938176,-5.405333278745742 21.539999782471007,-16.681333164871234 c5.399999945466269,-26.089333069861354 -13.842666526871803,-53.7813327902043 -21.971999778108305,-68.84399930475553 c5.126666614893286,5.223999947243665 22.897333102096848,23.469333096320316 37.677332952836004,23.469333096320316 c5.790666608187656,0 11.123999887660515,-2.802666638362987 15.053333181312142,-10.286666562783276 c1.8226666482598493,-3.006666636302824 1.4626666518954314,-10.257333229746175 1.4626666518954314,-10.257333229746175 " stroke-width="0"/><path id="path48" style="fill:#de1656;fill-opacity:1;fill-rule:evenodd;stroke:none" d="m580.3063825331017,255.72933846797144 c-4.537333287511534,0 -9.269333239723828,-2.498666641433034 -10.153333230796454,-6.938666596594189 c-0.8719999911938137,-4.365333289248535 0.11466666550866664,-8.146666584394792 6.3453332692528335,-9.978666565893718 c0.9866666567024789,-0.291999997051139 2.006666646401663,-0.43066666231743395 3.0253333027809792,-0.43066666231743395 c4.603999953504945,0 9.117333241258851,2.870666637676266 9.679999902243237,7.6879999223601265 c0.7773333254831685,6.679999932539755 -3.9426666268503103,9.659999902445215 -8.897333243480597,9.659999902445215 zm47.90399951622521,12.106666544403389 c-3.789333295065466,-12.862666536768666 -18.533333146168182,-14.73466651786364 -31.74533301274232,-18.135999816847455 l4.034666625921218,-0.005333333279472868 c7.8413332541449705,-0.05199999947486045 24.087999756739165,-0.9093333241501224 25.898666405120203,-7.255999926722824 c1.7266666492293379,-6.089333271838136 -3.7626666286681028,-12.615999872593047 -9.0733332417032,-13.609333195894866 c-0.9373333238673538,-0.1746666649027361 -1.862666647855896,-0.2559999974146973 -2.7759999719656228,-0.2559999974146973 c-9.222666573528441,0.0013333333198682147 -17.11733316046814,8.218666583667675 -22.625333104843733,10.238666563268021 c1.695999982872369,-2.5013333080727707 21.955999778269888,-28.241333048128652 6.350666602532306,-32.66399967013152 c-1.167999988204556,-0.32933333000744947 -2.2679999770958332,-0.48533332843203014 -3.3039999666334356,-0.48533332843203014 c-10.197333230352106,0 -14.17466652351899,15.047999848032669 -14.839999850133228,26.797333062711374 c-3.699999962634297,-12.325333208861775 -7.517333257416994,-25.081333080040984 -17.230666492656937,-30.84399968851141 c-1.55333331764647,-0.6359999935771397 -3.0399999692995294,-1.1693333215244244 -4.7146666190540065,-1.1693333215244244 c-1.2999999868715093,0 -2.7133333059318168,0.3213333300882397 -4.358666622649193,1.1693333215244244 c-16.210666502957753,7.050666595463119 7.907999920138381,27.670666387225058 14.514666520085385,33.565332994362436 c-6.60933326658674,-0.5533333277453083 -13.847999860151276,-7.3426665925142585 -22.094666443536184,-12.478666540646621 c0.4053333292399373,5.157333281250254 0.2306666643372012,10.382666561813787 -0.8519999913957903,15.613333175656791 c-0.4559999953949298,2.2026666444222904 -1.2279999875986258,4.231999957261713 -2.130666645149407,6.173333270989833 c6.113333271595764,0.6986666596109451 12.173333210396798,1.2599999872754628 16.910666495888567,2.485333308234352 c-5.169333281129068,1.0333333228978663 -12.23999987639021,1.5199999846497647 -19.682666467894585,2.169333311425585 c-5.202666614125774,7.046666595503514 -13.610666529214734,11.397333218233499 -23.445333096562685,11.397333218233499 c-4.001333292924512,0 -7.889333253660226,-0.7946666586414559 -11.510666550422297,-2.163999978146112 c-2.4759999749952746,2.226666644179918 -4.054666625719241,5.01066661606475 -4.32399995633262,8.553333246954598 c-0.49333332835123944,6.386666602168748 4.7026666191751945,12.865333203408401 10.883999890084235,13.607999862574998 c0.9626666569448515,0.11599999882853469 1.943999980367857,0.17066666494313137 2.941333303629281,0.17066666494313137 c16.461333167092977,0 37.00266629298269,-15.01866651499557 46.9479995258797,-21.03066645428135 c-4.174666624507379,9.67066656900416 -25.282666411341086,21.33599978453117 -29.934666364361284,35.3746663094236 c-4.029333292641744,12.163999877157723 4.8186666180037285,19.10933314035125 14.741333184462981,19.10933314035125 c4.993333282906464,0 10.259999896385912,-1.7599999822260437 14.291999855667392,-5.499999944456385 c9.534666570377603,-8.84933324396534 10.870666556885553,-28.4533330459877 15.414666510996428,-40.82666625436473 c2.137333311748748,17.142666493545633 -1.5813333173637023,39.84266626430199 9.077333241662805,48.07866618112794 c2.631999973419857,2.0373333127586317 5.997333272767229,3.0786666355757073 9.339999905676843,3.0786666355757073 c5.986666606208283,0 11.893333213224475,-3.349333299508955 13.337333198641751,-10.330666562338926 c3.3413332995897456,-16.15866650348289 -8.571999913432752,-33.31066633026761 -13.607999862574998,-42.63866623606564 c3.1773333012459553,3.234666634000289 14.182666523438199,14.537333186523144 23.33733309765336,14.537333186523144 c3.5839999638057605,0 6.886666597119328,-1.735999982468417 9.321333239198689,-6.369333269010461 c1.1346666552078506,-1.8679999811353687 0.9066666575103866,-6.355999935811779 0.9066666575103866,-6.355999935811779 " stroke-width="0"/></g></g></g></svg>
