<svg id="Layer_1" data-name="Layer 1" xmlns="http://www.w3.org/2000/svg" viewBox="0 0 260 190"><defs><style>.cls-1{fill:#231f20;}.cls-2{fill:#ba1b8a;}.cls-2,.cls-4,.cls-5,.cls-6,.cls-7,.cls-8{fill-rule:evenodd;}.cls-3,.cls-5{fill:#fff;}.cls-4{fill:#f89e1b;}.cls-6{fill:#fcc60c;}.cls-7{fill:#0eb7ce;}.cls-8{fill:#ec1651;}</style></defs><title>nfpg-logo</title><path class="cls-1" d="M16.618,82.611v5.843q6.093-6.742,13.835-6.742a15.245,15.245,0,0,1,7.992,2.222,14.507,14.507,0,0,1,5.618,6.093q1.923,3.872,1.923,12.262V128.56H36.9V102.389q0-7.042-2.148-10.064T27.556,89.3q-6.443,0-10.938,6.443V128.56H7.328V82.611Z"/><path class="cls-1" d="M59.721,82.611V79.864q0-11.088,4.72-16.532a14.488,14.488,0,0,1,11.313-5.444,30.578,30.578,0,0,1,6.742.9v8.89a12.3,12.3,0,0,0-4.195-.8q-5.346,0-7.417,2.847T68.811,79.864v2.747H77V90.8H68.811V128.56h-9.09V90.8H53.128v-8.19Z"/><path class="cls-1" d="M83.645,151.985V82.611H99.558q12.222,0,19.031,6.093t6.81,17.032q0,10.338-6.409,16.981a21.705,21.705,0,0,1-16.331,6.642,28.6,28.6,0,0,1-9.724-1.948v24.574ZM99.363,91.1H92.935V119.37a18.961,18.961,0,0,0,8.771,2.148,13.5,13.5,0,0,0,10.441-4.445,16.3,16.3,0,0,0,4.062-11.437,16.054,16.054,0,0,0-1.919-7.942,11.63,11.63,0,0,0-5.232-5.019Q105.741,91.1,99.363,91.1Z"/><path class="cls-1" d="M133.041,98.493a14.042,14.042,0,0,1,5.369-11.612q5.367-4.27,14.659-4.27H172V89.7h-9.289a19.01,19.01,0,0,1,3.747,4.995,12.049,12.049,0,0,1,1.048,5.144,13.772,13.772,0,0,1-2.047,7.067,14.43,14.43,0,0,1-5.27,5.319q-3.222,1.85-10.564,2.947-5.145.749-5.144,3.546a3.006,3.006,0,0,0,1.923,2.622,30.325,30.325,0,0,0,6.967,2.123,75.586,75.586,0,0,1,10.863,2.9,14.047,14.047,0,0,1,4.371,3,11.245,11.245,0,0,1,3.3,8.291,12,12,0,0,1-5.82,10.439q-5.819,3.9-15.558,3.9-9.838,0-15.707-3.921t-5.869-10.513q0-9.34,11.538-12.037-4.6-2.947-4.6-5.844a5.329,5.329,0,0,1,1.973-4,12.219,12.219,0,0,1,5.32-2.647Q133.04,108.533,133.041,98.493Zm14.933,32.215a13.3,13.3,0,0,0-7.517,1.948,5.815,5.815,0,0,0-2.921,4.994q0,7.092,12.785,7.093,6.045,0,9.365-1.773a5.5,5.5,0,0,0,3.322-5.02q0-3.2-4.2-5.219A25.024,25.024,0,0,0,147.974,130.708ZM150.122,90.5a8.747,8.747,0,0,0-6.293,2.5,8.023,8.023,0,0,0-2.6,5.994,7.6,7.6,0,0,0,2.548,5.868,9.983,9.983,0,0,0,12.861-.05,7.719,7.719,0,0,0,2.571-5.918,7.823,7.823,0,0,0-2.6-5.994A9.207,9.207,0,0,0,150.122,90.5Z"/><path class="cls-2" d="M199.356,55.5a7.722,7.722,0,0,1-4.715-1.561c-3.709-2.868-3.855-9.023-4-14.976-.008-.314-.015-.629-.024-.945l-.015.063c-1.157,4.788-2.352,9.739-5.444,12.608a10.331,10.331,0,0,1-6.966,2.687,8.186,8.186,0,0,1-6.721-3.07,7.038,7.038,0,0,1-.705-6.646c1.234-3.73,4.83-7.009,8-9.9.374-.341.744-.678,1.1-1.011-4.665,2.851-10.493,5.918-15.639,5.919h0a11.812,11.812,0,0,1-1.411-.082,6.777,6.777,0,0,1-5.665-7.051c.54-7.092,10.713-8.109,19.151-8.825-6.331-.736-13.446-1.989-12.767-8.75.285-2.835,2.729-4.958,6.083-5.282.333-.032.664-.048.991-.048,4.2,0,7.8,2.541,10.974,4.784l.691.487c-2.773-2.952-4.769-5.955-4.357-8.541a4.475,4.475,0,0,1,2.967-3.384,5,5,0,0,1,2.316-.6,6.275,6.275,0,0,1,2.451.59l.067.028.062.037c3.428,2.032,5.266,5.759,6.675,9.84.983-4.47,3.14-8.2,6.917-8.2a6.356,6.356,0,0,1,1.727.251,4.2,4.2,0,0,1,3.054,2.664c.752,2.176-.156,5.31-2.773,9.527a12.686,12.686,0,0,1,6.6-2.369,7.681,7.681,0,0,1,1.407.13,6.41,6.41,0,0,1,4.05,2.949,5.332,5.332,0,0,1,.715,4.29c-.542,1.907-3,3.125-7.34,3.638,3.729,1.178,6.959,2.978,8.134,6.974l.034.113.006.118a7.176,7.176,0,0,1-.541,3.361A5.438,5.438,0,0,1,209.5,38.6c-2.189,0-4.5-1.232-6.472-2.676,2.157,4.1,4.213,9.217,3.174,14.234A6.658,6.658,0,0,1,199.356,55.5ZM192.59,20.058a3.673,3.673,0,0,0-1.046.148c-2.152.632-2.4,1.706-2.093,3.231.293,1.476,1.975,2.248,3.485,2.248h0a3.137,3.137,0,0,0,2.365-.9,2.741,2.741,0,0,0,.553-2.229A3.092,3.092,0,0,0,192.59,20.058Z"/><path class="cls-3" d="M183.209,2.378a5.367,5.367,0,0,1,2.071.515c4.273,2.534,5.951,8.14,7.577,13.561.294-5.166,2.042-11.781,6.524-11.781a5.323,5.323,0,0,1,1.455.214c6.861,1.942-2.048,13.26-2.792,14.359,2.419-.886,5.891-4.5,9.945-4.5a6.659,6.659,0,0,1,1.223.113c2.334.435,4.749,3.306,3.988,5.982-.794,2.791-7.939,3.167-11.388,3.19h-1.774c5.812,1.5,12.294,2.321,13.959,7.977a6.737,6.737,0,0,1-.4,2.792,4.5,4.5,0,0,1-4.1,2.8c-4.025,0-8.864-4.968-10.259-6.391,2.213,4.1,7.453,11.642,5.981,18.746a5.705,5.705,0,0,1-5.865,4.544,6.751,6.751,0,0,1-4.1-1.352c-4.686-3.624-3.053-13.6-3.991-21.14-2,5.44-2.588,14.06-6.779,17.948a9.274,9.274,0,0,1-6.285,2.42c-4.361,0-8.249-3.054-6.477-8.4,2.044-6.174,11.323-11.3,13.159-15.556-4.372,2.647-13.4,9.249-20.641,9.249a10.824,10.824,0,0,1-1.294-.075,5.816,5.816,0,0,1-4.787-5.982c.648-8.5,18.152-7.219,25.926-8.776-6.952-1.8-20.392-.337-19.544-8.775.258-2.575,2.587-4.136,5.184-4.387.3-.029.6-.043.895-.043,6.9,0,12.34,7.627,17.056,8.021-2.9-2.593-13.508-11.658-6.382-14.758a4.118,4.118,0,0,1,1.917-.515m9.726,24.307c2.178,0,4.254-1.31,3.913-4.248a4.084,4.084,0,0,0-4.259-3.38,4.72,4.72,0,0,0-1.328.189c-2.741.807-3.172,2.467-2.791,4.387.389,1.953,2.47,3.052,4.465,3.052M183.209.378a6.056,6.056,0,0,0-2.775.707,5.4,5.4,0,0,0-3.5,4.117,7.415,7.415,0,0,0,1.041,4.64,14.832,14.832,0,0,0-7.361-2.212c-.362,0-.728.017-1.087.052-3.843.372-6.649,2.855-6.982,6.178-.5,5.026,2.708,7.364,6.807,8.592-6.7.994-12.742,3.09-13.193,9.007a7.812,7.812,0,0,0,6.544,8.12,12.937,12.937,0,0,0,1.531.089,23.753,23.753,0,0,0,9.546-2.477,17.56,17.56,0,0,0-3.963,6.155,8.188,8.188,0,0,0,.843,7.546,9.185,9.185,0,0,0,7.533,3.485,11.34,11.34,0,0,0,7.646-2.954,16.63,16.63,0,0,0,4.04-6.927c.35,4.211,1.28,8.019,4.145,10.235a8.731,8.731,0,0,0,5.328,1.77,7.717,7.717,0,0,0,7.824-6.139c.851-4.11-.224-8.218-1.784-11.826a9.583,9.583,0,0,0,4.1,1.066,6.411,6.411,0,0,0,5.848-3.828,7.886,7.886,0,0,0,.647-3.866l-.012-.236-.067-.228a10.17,10.17,0,0,0-5.561-6.351c4.035-1.122,4.552-2.941,4.769-3.7a6.322,6.322,0,0,0-.828-5.09,7.433,7.433,0,0,0-4.717-3.4,8.691,8.691,0,0,0-1.589-.147,10.5,10.5,0,0,0-4.069.88c1.471-3.049,1.848-5.453,1.187-7.364a5.153,5.153,0,0,0-3.727-3.3,7.328,7.328,0,0,0-2-.29c-3.455,0-5.711,2.585-7.037,6.091-1.354-3.14-3.165-5.884-6.044-7.591l-.125-.074-.134-.056a7.266,7.266,0,0,0-2.832-.665Zm9.726,24.307c-1.089,0-2.323-.54-2.5-1.442-.223-1.12-.159-1.622,1.394-2.078a2.675,2.675,0,0,1,.763-.108,2.146,2.146,0,0,1,2.272,1.612,1.809,1.809,0,0,1-.306,1.447,2.193,2.193,0,0,1-1.62.569Z"/><ellipse class="cls-3" cx="192.586" cy="22.805" rx="4.279" ry="3.698"/><path class="cls-4" d="M156.222,79.112a7.729,7.729,0,0,1-4.718-1.561c-3.709-2.867-3.854-9.02-4-14.971-.007-.316-.014-.633-.023-.951l-.015.064c-1.157,4.788-2.352,9.74-5.445,12.61a10.324,10.324,0,0,1-6.964,2.685,8.191,8.191,0,0,1-6.724-3.07,7.046,7.046,0,0,1-.7-6.647c1.236-3.729,4.832-7.008,8.005-9.9.373-.34.742-.677,1.1-1.01-4.665,2.849-10.5,5.919-15.64,5.92h0a12.012,12.012,0,0,1-1.411-.082,6.78,6.78,0,0,1-5.665-7.052c.539-7.089,10.709-8.108,19.146-8.824-6.329-.736-13.441-1.99-12.761-8.75.283-2.835,2.728-4.958,6.082-5.282.333-.033.664-.048.991-.048,4.2,0,7.8,2.541,10.973,4.783l.692.488c-2.773-2.953-4.77-5.956-4.358-8.542a4.477,4.477,0,0,1,2.967-3.384,5,5,0,0,1,2.316-.6,6.291,6.291,0,0,1,2.45.59l.068.027.063.038c3.427,2.033,5.265,5.758,6.674,9.839.984-4.47,3.14-8.2,6.918-8.2a6.394,6.394,0,0,1,1.726.251,4.2,4.2,0,0,1,3.053,2.665c.753,2.175-.155,5.31-2.773,9.528a12.69,12.69,0,0,1,6.6-2.371,7.667,7.667,0,0,1,1.4.13,6.411,6.411,0,0,1,4.051,2.95,5.338,5.338,0,0,1,.715,4.289c-.542,1.907-3,3.125-7.342,3.639,3.728,1.178,6.96,2.978,8.136,6.972l.035.114,0,.119a7.172,7.172,0,0,1-.543,3.362,5.434,5.434,0,0,1-4.953,3.282c-2.189,0-4.5-1.234-6.473-2.677,2.158,4.1,4.214,9.217,3.175,14.235A6.658,6.658,0,0,1,156.222,79.112Zm-6.769-35.443a3.707,3.707,0,0,0-1.045.148c-2.152.633-2.4,1.706-2.093,3.232.294,1.475,1.975,2.246,3.484,2.247h0a3.136,3.136,0,0,0,2.365-.9,2.743,2.743,0,0,0,.552-2.229A3.092,3.092,0,0,0,149.453,43.669Z"/><path class="cls-3" d="M140.071,25.989a5.38,5.38,0,0,1,2.072.515c4.274,2.535,5.952,8.141,7.578,13.562.293-5.167,2.042-11.782,6.524-11.782a5.3,5.3,0,0,1,1.453.214c6.861,1.943-2.046,13.26-2.791,14.36,2.42-.886,5.892-4.5,9.947-4.5a6.63,6.63,0,0,1,1.221.113c2.334.436,4.749,3.307,3.988,5.983-.793,2.791-7.938,3.167-11.388,3.191H156.9c5.812,1.5,12.292,2.322,13.958,7.976a6.739,6.739,0,0,1-.4,2.793,4.5,4.5,0,0,1-4.1,2.8c-4.024,0-8.864-4.969-10.26-6.391,2.214,4.1,7.454,11.642,5.983,18.747a5.706,5.706,0,0,1-5.865,4.542,6.757,6.757,0,0,1-4.106-1.352c-4.686-3.623-3.051-13.6-3.989-21.14-2,5.44-2.589,14.06-6.78,17.95a9.269,9.269,0,0,1-6.284,2.419c-4.361,0-8.251-3.054-6.479-8.4,2.045-6.173,11.323-11.3,13.161-15.554-4.374,2.645-13.4,9.248-20.643,9.248a10.819,10.819,0,0,1-1.293-.075,5.814,5.814,0,0,1-4.786-5.983c.646-8.494,18.15-7.22,25.925-8.775-6.951-1.8-20.392-.337-19.543-8.775.258-2.576,2.585-4.136,5.184-4.387.3-.029.6-.043.894-.043,6.9,0,12.339,7.626,17.055,8.02-2.9-2.593-13.507-11.658-6.382-14.758a4.117,4.117,0,0,1,1.916-.515M149.8,50.3c2.178,0,4.253-1.31,3.911-4.248a4.082,4.082,0,0,0-4.257-3.379,4.708,4.708,0,0,0-1.327.189c-2.743.807-3.173,2.467-2.792,4.387.389,1.952,2.47,3.051,4.465,3.051m-9.728-26.307a6.045,6.045,0,0,0-2.773.707,5.4,5.4,0,0,0-3.5,4.117,7.409,7.409,0,0,0,1.041,4.64,14.842,14.842,0,0,0-7.361-2.211c-.362,0-.728.017-1.087.052-3.843.372-6.648,2.855-6.981,6.178-.506,5.026,2.706,7.363,6.8,8.592-6.7.994-12.742,3.09-13.192,9.006a7.815,7.815,0,0,0,6.542,8.121,12.992,12.992,0,0,0,1.532.089,23.739,23.739,0,0,0,9.547-2.478,17.586,17.586,0,0,0-3.964,6.155,8.188,8.188,0,0,0,.844,7.546,9.185,9.185,0,0,0,7.534,3.486,11.342,11.342,0,0,0,7.645-2.953,16.634,16.634,0,0,0,4.04-6.928c.35,4.211,1.28,8.019,4.145,10.234a8.734,8.734,0,0,0,5.329,1.77,7.717,7.717,0,0,0,7.824-6.137c.851-4.111-.225-8.219-1.785-11.828a9.57,9.57,0,0,0,4.1,1.067,6.412,6.412,0,0,0,5.848-3.829,7.914,7.914,0,0,0,.647-3.865l-.012-.237-.067-.229a10.172,10.172,0,0,0-5.564-6.35c4.038-1.122,4.555-2.941,4.772-3.7a6.323,6.323,0,0,0-.827-5.089,7.44,7.44,0,0,0-4.717-3.407,8.7,8.7,0,0,0-1.588-.147,10.515,10.515,0,0,0-4.065.878c1.238-2.583,1.924-5.21,1.18-7.362a5.16,5.16,0,0,0-3.727-3.3,7.357,7.357,0,0,0-2-.289c-3.456,0-5.712,2.585-7.038,6.09-1.354-3.139-3.164-5.882-6.043-7.59l-.127-.075-.135-.056a7.3,7.3,0,0,0-2.831-.664ZM149.8,48.3c-1.089,0-2.324-.54-2.5-1.442-.223-1.119-.159-1.621,1.394-2.077a2.675,2.675,0,0,1,.763-.108,2.145,2.145,0,0,1,2.271,1.611,1.813,1.813,0,0,1-.306,1.448,2.194,2.194,0,0,1-1.619.568Z"/><path class="cls-5" d="M154.174,46.425c0,2.043-2,3.7-4.455,3.7s-4.454-1.657-4.454-3.7,1.994-3.7,4.454-3.7S154.174,44.382,154.174,46.425Z"/><path class="cls-6" d="M209.7,93.51a7.733,7.733,0,0,1-4.717-1.562c-3.708-2.866-3.853-9.02-3.994-14.97-.008-.317-.014-.635-.023-.954,0,.023-.011.046-.017.069C199.8,80.88,198.6,85.831,195.51,88.7a10.332,10.332,0,0,1-6.966,2.686h0a8.186,8.186,0,0,1-6.722-3.07,7.043,7.043,0,0,1-.7-6.646c1.235-3.731,4.831-7.01,8-9.9.372-.339.741-.675,1.1-1.008-4.664,2.85-10.492,5.918-15.637,5.918a12.063,12.063,0,0,1-1.414-.082,6.772,6.772,0,0,1-5.663-7.051c.539-7.09,10.71-8.108,19.147-8.824-6.329-.736-13.444-1.99-12.764-8.75.284-2.835,2.728-4.959,6.083-5.283q.5-.048.99-.048c4.2,0,7.8,2.542,10.974,4.784.232.164.462.327.692.487-2.775-2.952-4.771-5.955-4.359-8.541a4.478,4.478,0,0,1,2.967-3.384,5.014,5.014,0,0,1,2.317-.6,6.309,6.309,0,0,1,2.45.59l.067.027.063.038c3.428,2.032,5.266,5.759,6.675,9.841.984-4.47,3.141-8.2,6.918-8.2a6.368,6.368,0,0,1,1.726.252,4.2,4.2,0,0,1,3.054,2.664c.752,2.176-.156,5.311-2.774,9.528a12.689,12.689,0,0,1,6.6-2.37,7.658,7.658,0,0,1,1.405.129,6.414,6.414,0,0,1,4.051,2.949,5.347,5.347,0,0,1,.716,4.291c-.543,1.907-3.005,3.126-7.34,3.638,3.728,1.178,6.958,2.979,8.134,6.973l.034.113.006.119a7.2,7.2,0,0,1-.541,3.362,5.439,5.439,0,0,1-4.955,3.282c-2.189,0-4.5-1.234-6.473-2.677,2.157,4.1,4.213,9.217,3.175,14.235A6.662,6.662,0,0,1,209.7,93.51Zm-6.766-35.444a3.673,3.673,0,0,0-1.046.149c-2.154.632-2.4,1.7-2.094,3.231.294,1.475,1.975,2.247,3.485,2.247h0a3.135,3.135,0,0,0,2.365-.9,2.74,2.74,0,0,0,.553-2.229A3.092,3.092,0,0,0,202.937,58.066Z"/><path class="cls-3" d="M193.555,40.386a5.375,5.375,0,0,1,2.07.515c4.275,2.534,5.952,8.14,7.578,13.562.294-5.166,2.042-11.782,6.524-11.782a5.323,5.323,0,0,1,1.455.214c6.86,1.944-2.047,13.26-2.792,14.36,2.42-.887,5.892-4.5,9.946-4.5a6.646,6.646,0,0,1,1.222.112c2.335.436,4.748,3.306,3.988,5.983-.794,2.791-7.939,3.167-11.387,3.19h-1.776c5.814,1.5,12.295,2.321,13.96,7.976a6.752,6.752,0,0,1-.4,2.793,4.5,4.5,0,0,1-4.1,2.8c-4.025,0-8.864-4.969-10.26-6.392,2.214,4.1,7.453,11.643,5.983,18.747A5.708,5.708,0,0,1,209.7,92.51a6.749,6.749,0,0,1-4.1-1.353c-4.686-3.623-3.052-13.6-3.99-21.14-2,5.44-2.589,14.061-6.778,17.949a9.277,9.277,0,0,1-6.286,2.419c-4.362,0-8.251-3.053-6.479-8.4,2.045-6.174,11.324-11.3,13.161-15.555-4.373,2.646-13.4,9.248-20.641,9.248a10.853,10.853,0,0,1-1.3-.075,5.814,5.814,0,0,1-4.786-5.982c.647-8.495,18.151-7.219,25.925-8.775-6.951-1.8-20.392-.338-19.544-8.775.258-2.575,2.587-4.137,5.185-4.388.3-.029.6-.043.893-.043,6.9,0,12.341,7.627,17.057,8.021-2.9-2.593-13.508-11.658-6.382-14.758a4.118,4.118,0,0,1,1.917-.515m9.727,24.307c2.178,0,4.253-1.31,3.912-4.248a4.083,4.083,0,0,0-4.258-3.379,4.72,4.72,0,0,0-1.328.189c-2.742.806-3.173,2.468-2.792,4.386.389,1.953,2.471,3.052,4.466,3.052m-9.727-26.307a6.072,6.072,0,0,0-2.775.707,5.4,5.4,0,0,0-3.5,4.117,7.422,7.422,0,0,0,1.041,4.64,14.843,14.843,0,0,0-7.362-2.212c-.361,0-.726.018-1.085.052-3.844.372-6.65,2.856-6.983,6.18-.505,5.024,2.708,7.362,6.807,8.59-6.7.994-12.742,3.091-13.192,9.007a7.811,7.811,0,0,0,6.542,8.12,13,13,0,0,0,1.533.089,23.738,23.738,0,0,0,9.544-2.476,17.571,17.571,0,0,0-3.962,6.155,8.187,8.187,0,0,0,.843,7.545,9.186,9.186,0,0,0,7.534,3.485,11.343,11.343,0,0,0,7.646-2.952,16.625,16.625,0,0,0,4.039-6.929c.35,4.212,1.28,8.02,4.145,10.236a8.74,8.74,0,0,0,5.329,1.77,7.718,7.718,0,0,0,7.824-6.138c.851-4.111-.224-8.219-1.784-11.827a9.6,9.6,0,0,0,4.1,1.066,6.413,6.413,0,0,0,5.848-3.828,7.911,7.911,0,0,0,.646-3.867l-.012-.236-.067-.228A10.171,10.171,0,0,0,220.7,63.1c4.034-1.121,4.552-2.941,4.769-3.7a6.325,6.325,0,0,0-.827-5.09,7.442,7.442,0,0,0-4.717-3.406,8.7,8.7,0,0,0-1.588-.146,10.51,10.51,0,0,0-4.071.88c1.471-3.049,1.848-5.453,1.187-7.364a5.154,5.154,0,0,0-3.726-3.3,7.334,7.334,0,0,0-2-.29c-3.455,0-5.711,2.586-7.037,6.092-1.354-3.141-3.165-5.885-6.045-7.592l-.125-.075-.135-.055a7.265,7.265,0,0,0-2.83-.665Zm9.727,24.307c-1.09,0-2.324-.54-2.5-1.443-.223-1.118-.159-1.62,1.394-2.076a2.723,2.723,0,0,1,.764-.108,2.145,2.145,0,0,1,2.271,1.611,1.813,1.813,0,0,1-.306,1.448,2.194,2.194,0,0,1-1.619.568Z"/><path class="cls-5" d="M207.4,60.869a4.324,4.324,0,0,1-8.557,0,4.324,4.324,0,0,1,8.557,0Z"/><path class="cls-7" d="M155.576,26.99a3.882,3.882,0,0,1-2.368-.788,5.449,5.449,0,0,1-1.765-3.854,6.582,6.582,0,0,1-1.549,2.432,5,5,0,0,1-3.368,1.3,4.069,4.069,0,0,1-3.338-1.55,3.637,3.637,0,0,1-.381-3.357,6.89,6.89,0,0,1,1.3-2.2,9.553,9.553,0,0,1-3.547.815,5.529,5.529,0,0,1-.673-.04,3.49,3.49,0,0,1-2.925-3.627c.187-2.453,2.5-3.419,5.179-3.89A3.281,3.281,0,0,1,139.69,8.6a3.231,3.231,0,0,1,3.116-2.772c.161-.016.321-.024.479-.024a6.154,6.154,0,0,1,2.825.751,3.005,3.005,0,0,1-.265-1.668A2.455,2.455,0,0,1,147.45,3a2.656,2.656,0,0,1,1.219-.3,3.255,3.255,0,0,1,1.265.294l.068.028.063.037a6.561,6.561,0,0,1,2.5,3.011,3.359,3.359,0,0,1,3.019-2.389,3.268,3.268,0,0,1,.893.129,2.344,2.344,0,0,1,1.692,1.5,4.048,4.048,0,0,1-.366,2.935,4.443,4.443,0,0,1,1.463-.259,3.822,3.822,0,0,1,.707.066,3.326,3.326,0,0,1,2.113,1.523,2.849,2.849,0,0,1,.369,2.292,2.514,2.514,0,0,1-1.808,1.578,4.377,4.377,0,0,1,2.146,2.641l.034.114.006.118a3.441,3.441,0,0,1-.314,1.763,2.846,2.846,0,0,1-2.609,1.68,3.943,3.943,0,0,1-1.479-.321,8.356,8.356,0,0,1,.63,4.807A3.442,3.442,0,0,1,155.576,26.99Zm-2.893-15.158a.993.993,0,0,0-.286.04c-.6.177-.575.325-.5.721.061.309.529.5.928.5h0a.807.807,0,0,0,.584-.2.643.643,0,0,0,.1-.507C153.466,12.028,153.051,11.832,152.683,11.832Z"/><path class="cls-3" d="M148.669,3.7a2.316,2.316,0,0,1,.886.219c1.829,1.085,2.546,3.482,3.24,5.8.126-2.21.875-5.039,2.791-5.039a2.282,2.282,0,0,1,.621.091c2.934.831-.874,5.672-1.194,6.142,1.035-.379,2.52-1.925,4.254-1.925a2.856,2.856,0,0,1,.524.049,2.233,2.233,0,0,1,1.7,2.558c-.339,1.194-3.394,1.353-4.869,1.364h-.76c2.486.642,5.257.993,5.97,3.412a2.872,2.872,0,0,1-.17,1.194,1.926,1.926,0,0,1-1.753,1.2c-1.722,0-3.791-2.125-4.388-2.734.947,1.754,3.188,4.979,2.559,8.017a2.44,2.44,0,0,1-2.508,1.944,2.894,2.894,0,0,1-1.756-.579c-2-1.55-1.305-5.816-1.706-9.04-.856,2.326-1.107,6.012-2.9,7.675a3.964,3.964,0,0,1-2.688,1.035c-1.865,0-3.528-1.3-2.77-3.593.874-2.641,4.843-4.834,5.628-6.653-1.87,1.132-5.732,3.956-8.827,3.956a4.6,4.6,0,0,1-.554-.033,2.485,2.485,0,0,1-2.047-2.558c.277-3.632,7.764-3.088,11.087-3.753-2.973-.769-8.72-.144-8.358-3.751A2.265,2.265,0,0,1,142.9,6.819a3.787,3.787,0,0,1,.382-.019c2.951,0,5.277,3.262,7.294,3.43-1.242-1.108-5.777-4.986-2.73-6.312a1.769,1.769,0,0,1,.82-.219m4.16,10.394a1.542,1.542,0,0,0,1.673-1.816,1.746,1.746,0,0,0-1.82-1.445,2,2,0,0,0-.568.081,1.442,1.442,0,0,0-1.194,1.876,1.855,1.855,0,0,0,1.909,1.3M148.669,1.7a3.755,3.755,0,0,0-1.676.411,3.436,3.436,0,0,0-2.136,2.616c-.014.09-.025.179-.032.268a6.289,6.289,0,0,0-1.54-.194q-.285,0-.574.028A4.206,4.206,0,0,0,138.7,8.5a4.008,4.008,0,0,0,1.007,3.328c-2.014.7-3.566,1.935-3.74,4.224a4.467,4.467,0,0,0,3.8,4.7,6.6,6.6,0,0,0,.791.047,8.05,8.05,0,0,0,1.367-.123c-.023.063-.046.127-.067.191a4.614,4.614,0,0,0,.519,4.257,5.07,5.07,0,0,0,4.15,1.965,5.923,5.923,0,0,0,4.048-1.569,5.84,5.84,0,0,0,.5-.523,4.959,4.959,0,0,0,1.524,2,4.89,4.89,0,0,0,2.98,1,4.422,4.422,0,0,0,4.467-3.539,8.271,8.271,0,0,0-.135-3.688h.005a3.889,3.889,0,0,0,3.5-2.231,4.327,4.327,0,0,0,.416-2.262l-.012-.237-.067-.227a5.173,5.173,0,0,0-1.288-2.213,2.9,2.9,0,0,0,.953-1.452,3.832,3.832,0,0,0-.48-3.09,4.3,4.3,0,0,0-2.782-1.981,4.9,4.9,0,0,0-.89-.082h-.025a4.009,4.009,0,0,0-.126-2,3.364,3.364,0,0,0-2.364-2.138,4.283,4.283,0,0,0-1.166-.167A3.832,3.832,0,0,0,152.6,4.106,6.581,6.581,0,0,0,150.575,2.2l-.126-.075-.137-.056a4.189,4.189,0,0,0-1.643-.368Zm4.2,10.612Z"/><path class="cls-5" d="M154.841,12.432a2.122,2.122,0,0,1-4.2,0,2.121,2.121,0,0,1,4.2,0Z"/><path class="cls-8" d="M216.065,117.592a4.8,4.8,0,0,1-2.934-.975c-1.731-1.337-2.187-3.751-2.342-6.365a10.083,10.083,0,0,1-2.457,4.5,6.282,6.282,0,0,1-4.235,1.635,5.064,5.064,0,0,1-4.157-1.917,4.4,4.4,0,0,1-.459-4.149,10.776,10.776,0,0,1,2.7-3.946,14.167,14.167,0,0,1-5.985,1.693,7.017,7.017,0,0,1-.85-.05,4.279,4.279,0,0,1-3.584-4.455c.26-3.438,4-4.543,7.985-5.062-2.551-.632-4.675-1.9-4.374-4.888a3.956,3.956,0,0,1,3.83-3.375q.3-.03.6-.03a8.7,8.7,0,0,1,4.522,1.484,4.432,4.432,0,0,1-.818-2.967,2.937,2.937,0,0,1,1.934-2.245,3.214,3.214,0,0,1,1.483-.374,4.01,4.01,0,0,1,1.551.365l.069.028.063.038a8.878,8.878,0,0,1,3.492,4.542c.714-2.095,1.983-3.676,3.974-3.676a4.023,4.023,0,0,1,1.093.158,2.791,2.791,0,0,1,2.02,1.785c.439,1.269-.034,2.851-.82,4.387a6.047,6.047,0,0,1,2.575-.632,4.73,4.73,0,0,1,.874.081,4.07,4.07,0,0,1,2.581,1.867,3.449,3.449,0,0,1,.454,2.773c-.124.435-.426,1.5-2.949,2.1a5.764,5.764,0,0,1,3.4,3.663l.034.114.006.118a4.261,4.261,0,0,1-.37,2.151,3.468,3.468,0,0,1-3.173,2.065,5.609,5.609,0,0,1-2.591-.757,11.416,11.416,0,0,1,1.151,6.948A4.236,4.236,0,0,1,216.065,117.592Zm-3.828-20.049a1.656,1.656,0,0,0-.469.066c-.931.275-1.022.616-.88,1.328.115.576.876.92,1.545.92h0a1.345,1.345,0,0,0,1.013-.365,1.139,1.139,0,0,0,.205-.921A1.323,1.323,0,0,0,212.237,97.543Z"/><path class="cls-3" d="M206.931,87.109a3.057,3.057,0,0,1,1.172.291c2.416,1.433,3.365,4.606,4.285,7.671.166-2.922,1.155-6.665,3.691-6.665a3.019,3.019,0,0,1,.822.121c3.881,1.1-1.158,7.5-1.579,8.124,1.369-.5,3.333-2.546,5.627-2.547a3.708,3.708,0,0,1,.69.064,2.957,2.957,0,0,1,2.256,3.384c-.45,1.579-4.49,1.792-6.441,1.8h-1c3.286.847,6.952,1.312,7.9,4.511a3.8,3.8,0,0,1-.225,1.581,2.546,2.546,0,0,1-2.319,1.583c-2.276,0-5.014-2.81-5.8-3.615,1.253,2.32,4.216,6.586,3.385,10.6a3.229,3.229,0,0,1-3.318,2.569,3.812,3.812,0,0,1-2.322-.766c-2.651-2.048-1.726-7.694-2.258-11.957-1.13,3.077-1.462,7.953-3.833,10.154a5.251,5.251,0,0,1-3.555,1.367c-2.468,0-4.668-1.727-3.666-4.752,1.157-3.492,6.406-6.393,7.445-8.8-2.474,1.495-7.582,5.231-11.676,5.231a6.1,6.1,0,0,1-.732-.043,3.288,3.288,0,0,1-2.707-3.384c.365-4.806,10.268-4.085,14.664-4.963-3.933-1.017-11.534-.191-11.054-4.965a2.992,2.992,0,0,1,2.932-2.48c.17-.017.34-.025.507-.025,3.9,0,6.979,4.313,9.646,4.537-1.643-1.466-7.641-6.595-3.609-8.348a2.326,2.326,0,0,1,1.084-.291m5.5,13.749a2.04,2.04,0,0,0,2.213-2.4,2.308,2.308,0,0,0-2.407-1.912,2.642,2.642,0,0,0-.753.108,1.907,1.907,0,0,0-1.578,2.481,2.455,2.455,0,0,0,2.525,1.726m-5.5-15.749a4.262,4.262,0,0,0-1.941.483,3.919,3.919,0,0,0-2.464,2.978,4.029,4.029,0,0,0-.018,1.129,8,8,0,0,0-2.7-.487c-.233,0-.469.011-.7.033a4.929,4.929,0,0,0-4.729,4.273,4.655,4.655,0,0,0,2,4.617c-2.974.8-5.383,2.294-5.616,5.357a5.316,5.316,0,0,0,4.462,5.522,8.132,8.132,0,0,0,.971.057,11.1,11.1,0,0,0,2.944-.435,7.931,7.931,0,0,0-.611,1.373,5.473,5.473,0,0,0,.6,5.05,6.063,6.063,0,0,0,4.967,2.331,7.2,7.2,0,0,0,4.915-1.9,7.709,7.709,0,0,0,1.3-1.605,6.457,6.457,0,0,0,2.208,3.525,5.816,5.816,0,0,0,3.545,1.183,5.215,5.215,0,0,0,5.276-4.164,10.817,10.817,0,0,0-.406-5.47,5.153,5.153,0,0,0,.867.075,4.526,4.526,0,0,0,4.068-2.614,5.219,5.219,0,0,0,.473-2.652l-.012-.236-.067-.227a6.241,6.241,0,0,0-2.105-3.172,3.4,3.4,0,0,0,1.66-2.031,4.44,4.44,0,0,0-.566-3.576,5.03,5.03,0,0,0-3.246-2.323,5.769,5.769,0,0,0-1.058-.1,6.038,6.038,0,0,0-.87.064,5.19,5.19,0,0,0,.06-3.146,3.823,3.823,0,0,0-2.693-2.419,5.008,5.008,0,0,0-1.367-.2,4.675,4.675,0,0,0-3.989,2.381,8.491,8.491,0,0,0-2.966-3.107L209,85.605l-.136-.056a4.948,4.948,0,0,0-1.93-.44Zm4.92,13.529c.049-.02.115-.044.2-.069a.667.667,0,0,1,.188-.026.586.586,0,0,1,.423.146,1.039,1.039,0,0,1,0,.138.816.816,0,0,1-.234.031.99.99,0,0,1-.573-.167l-.008-.053Z"/></svg>
